<?xml version="1.0" encoding="UTF-8" standalone="no"?><svg xmlns="http://www.w3.org/2000/svg" xmlns:xlink="http://www.w3.org/1999/xlink" contentScriptType="application/ecmascript" contentStyleType="text/css" height="317px" preserveAspectRatio="none" style="width:1120px;height:317px;" version="1.1" viewBox="0 0 1120 317" width="1120px" zoomAndPan="magnify"><defs><filter height="300%" id="f1r5uv6ve89227" width="300%" x="-1" y="-1"><feGaussianBlur result="blurOut" stdDeviation="2.0"/><feColorMatrix in="blurOut" result="blurOut2" type="matrix" values="0 0 0 0 0 0 0 0 0 0 0 0 0 0 0 0 0 0 .4 0"/><feOffset dx="4.0" dy="4.0" in="blurOut2" result="blurOut3"/><feBlend in="SourceGraphic" in2="blurOut3" mode="normal"/></filter></defs><g><!--entity User--><ellipse cx="93.5" cy="18" fill="#FEFECE" filter="url(#f1r5uv6ve89227)" rx="8" ry="8" style="stroke: #A80036; stroke-width: 2.0;"/><path d="M93.5,26 L93.5,53 M80.5,34 L106.5,34 M93.5,53 L80.5,68 M93.5,53 L106.5,68 " fill="none" filter="url(#f1r5uv6ve89227)" style="stroke: #A80036; stroke-width: 2.0;"/><text fill="#000000" font-family="sans-serif" font-size="14" lengthAdjust="spacingAndGlyphs" textLength="32" x="77.5" y="87.9951">User</text><ellipse cx="70.4486" cy="180.7897" fill="#FEFECE" filter="url(#f1r5uv6ve89227)" rx="64.4486" ry="15.2897" style="stroke: #A80036; stroke-width: 1.5;"/><text fill="#000000" font-family="sans-serif" font-size="14" lengthAdjust="spacingAndGlyphs" textLength="92" x="24.4486" y="185.4382">Watch videos</text><ellipse cx="307.3513" cy="180.7703" fill="#FEFECE" filter="url(#f1r5uv6ve89227)" rx="136.8513" ry="29.7703" style="stroke: #A80036; stroke-width: 1.5;"/><text fill="#000000" font-family="sans-serif" font-size="14" lengthAdjust="spacingAndGlyphs" textLength="255" x="179.8513" y="185.4187">Can make search,comment and likes</text><path d="M144.5,37 L144.5,45.5 L109.619,49.5 L144.5,53.5 L144.5,62.1328 A0,0 0 0 0 144.5,62.1328 L304.5,62.1328 A0,0 0 0 0 304.5,62.1328 L304.5,47 L294.5,37 L144.5,37 A0,0 0 0 0 144.5,37 " fill="#FBFB77" filter="url(#f1r5uv6ve89227)" style="stroke: #A80036; stroke-width: 1.0;"/><path d="M294.5,37 L294.5,47 L304.5,47 L294.5,37 " fill="#FBFB77" style="stroke: #A80036; stroke-width: 1.0;"/><text fill="#000000" font-family="sans-serif" font-size="13" lengthAdjust="spacingAndGlyphs" textLength="139" x="150.5" y="54.0669">Watch videos and ads</text><!--entity Youtuber--><ellipse cx="416.5" cy="18" fill="#FEFECE" filter="url(#f1r5uv6ve89227)" rx="8" ry="8" style="stroke: #A80036; stroke-width: 2.0;"/><path d="M416.5,26 L416.5,53 M403.5,34 L429.5,34 M416.5,53 L403.5,68 M416.5,53 L429.5,68 " fill="none" filter="url(#f1r5uv6ve89227)" style="stroke: #A80036; stroke-width: 2.0;"/><text fill="#000000" font-family="sans-serif" font-size="14" lengthAdjust="spacingAndGlyphs" textLength="64" x="384.5" y="87.9951">Youtuber</text><ellipse cx="497.3417" cy="289.1683" fill="#FEFECE" filter="url(#f1r5uv6ve89227)" rx="66.3417" ry="15.6683" style="stroke: #A80036; stroke-width: 1.5;"/><text fill="#000000" font-family="sans-serif" font-size="14" lengthAdjust="spacingAndGlyphs" textLength="97" x="448.8417" y="293.8168">Upload videos</text><ellipse cx="676.2711" cy="288.7542" fill="#FEFECE" filter="url(#f1r5uv6ve89227)" rx="76.7711" ry="17.7542" style="stroke: #A80036; stroke-width: 1.5;"/><text fill="#000000" font-family="sans-serif" font-size="14" lengthAdjust="spacingAndGlyphs" textLength="123" x="614.7711" y="293.4027">Uses admin panel</text><path d="M483.5,37 L483.5,45.5 L448.812,49.5 L483.5,53.5 L483.5,62.1328 A0,0 0 0 0 483.5,62.1328 L701.5,62.1328 A0,0 0 0 0 701.5,62.1328 L701.5,47 L691.5,37 L483.5,37 A0,0 0 0 0 483.5,37 " fill="#FBFB77" filter="url(#f1r5uv6ve89227)" style="stroke: #A80036; stroke-width: 1.0;"/><path d="M691.5,37 L691.5,47 L701.5,47 L691.5,37 " fill="#FBFB77" style="stroke: #A80036; stroke-width: 1.0;"/><text fill="#000000" font-family="sans-serif" font-size="13" lengthAdjust="spacingAndGlyphs" textLength="197" x="489.5" y="54.0669">Gets a part of the add revenue</text><!--entity Adversitor--><ellipse cx="771.5" cy="18" fill="#FEFECE" filter="url(#f1r5uv6ve89227)" rx="8" ry="8" style="stroke: #A80036; stroke-width: 2.0;"/><path d="M771.5,26 L771.5,53 M758.5,34 L784.5,34 M771.5,53 L758.5,68 M771.5,53 L784.5,68 " fill="none" filter="url(#f1r5uv6ve89227)" style="stroke: #A80036; stroke-width: 2.0;"/><text fill="#000000" font-family="sans-serif" font-size="14" lengthAdjust="spacingAndGlyphs" textLength="69" x="737" y="87.9951">Adversitor</text><ellipse cx="833.7193" cy="289.0236" fill="#FEFECE" filter="url(#f1r5uv6ve89227)" rx="44.7193" ry="14.5236" style="stroke: #A80036; stroke-width: 1.5;"/><text fill="#000000" font-family="sans-serif" font-size="14" lengthAdjust="spacingAndGlyphs" textLength="59" x="804.2193" y="293.6721">Give ads</text><path d="M841,37 L841,45.5 L806.391,49.5 L841,53.5 L841,62.1328 A0,0 0 0 0 841,62.1328 L1108,62.1328 A0,0 0 0 0 1108,62.1328 L1108,47 L1098,37 L841,37 A0,0 0 0 0 841,37 " fill="#FBFB77" filter="url(#f1r5uv6ve89227)" style="stroke: #A80036; stroke-width: 1.0;"/><path d="M1098,37 L1098,47 L1108,47 L1098,37 " fill="#FBFB77" style="stroke: #A80036; stroke-width: 1.0;"/><text fill="#000000" font-family="sans-serif" font-size="13" lengthAdjust="spacingAndGlyphs" textLength="246" x="847" y="54.0669">Money goes to youtube and youtubers</text><!--link User to Watch videos--><path d="M86.2858,91.119 C82.2026,114.109 77.2783,141.835 74.0275,160.139 " fill="none" id="User-Watch videos" style="stroke: #A80036; stroke-width: 1.0;"/><polygon fill="#A80036" points="73.0751,165.501,78.5872,157.3391,73.9494,160.578,70.7105,155.9402,73.0751,165.501" style="stroke: #A80036; stroke-width: 1.0;"/><!--link User to Can make search,comment and likes--><path d="M109.754,73.935 C114.669,79.98 120.396,86.144 126.5,91 C158.888,116.767 199.951,137.713 234.776,152.796 " fill="none" id="User-Can make search,comment and likes" style="stroke: #A80036; stroke-width: 1.0;"/><polygon fill="#A80036" points="239.427,154.792,232.7347,147.5661,234.8325,152.8196,229.5789,154.9174,239.427,154.792" style="stroke: #A80036; stroke-width: 1.0;"/><!--link Youtuber to Upload videos--><path d="M436.665,91.441 C445.047,109.435 454.444,130.987 461.5,151 C475.913,191.877 487.544,241.4064 493.392,268.2984 " fill="none" id="Youtuber-Upload videos" style="stroke: #A80036; stroke-width: 1.0;"/><polygon fill="#A80036" points="494.483,273.3657,496.4976,263.7251,493.4299,268.4779,488.6771,265.4101,494.483,273.3657" style="stroke: #A80036; stroke-width: 1.0;"/><!--link Youtuber to Uses admin panel--><path d="M448.642,79.86 C502.295,128.87 608.733,226.0975 654.614,268.0081 " fill="none" id="Youtuber-Uses admin panel" style="stroke: #A80036; stroke-width: 1.0;"/><polygon fill="#A80036" points="658.338,271.4093,654.3897,262.3865,654.6459,268.0376,648.9949,268.2938,658.338,271.4093" style="stroke: #A80036; stroke-width: 1.0;"/><!--link Youtuber to Can make search,comment and likes--><path d="M384.386,88.654 C368.74,107.243 350.114,129.372 335.114,147.193 " fill="none" id="Youtuber-Can make search,comment and likes" style="stroke: #A80036; stroke-width: 1.0;"/><polygon fill="#A80036" points="331.775,151.159,340.6308,146.8491,334.9947,147.3336,334.5102,141.6976,331.775,151.159" style="stroke: #A80036; stroke-width: 1.0;"/><!--link Adversitor to Give ads--><path d="M782.088,91.058 C795.636,142.957 818.549,230.727 828.565,269.0966 " fill="none" id="Adversitor-Give ads" style="stroke: #A80036; stroke-width: 1.0;"/><polygon fill="#A80036" points="829.947,274.3891,831.5435,264.6705,828.6838,269.5513,823.803,266.6916,829.947,274.3891" style="stroke: #A80036; stroke-width: 1.0;"/><!--link Adversitor to Uses admin panel--><path d="M755.277,91.058 C735.091,141.522 701.341,225.8987 685.38,265.8009 " fill="none" id="Adversitor-Uses admin panel" style="stroke: #A80036; stroke-width: 1.0;"/><polygon fill="#A80036" points="683.34,270.8995,690.3962,264.0286,685.1968,266.2571,682.9683,261.0577,683.34,270.8995" style="stroke: #A80036; stroke-width: 1.0;"/><!--link Adversitor to Can make search,comment and likes--><path d="M736.961,80.243 C731.069,84.312 724.807,88.085 718.5,91 C628.828,132.438 519.133,154.935 435.631,166.938 " fill="none" id="Adversitor-Can make search,comment and likes" style="stroke: #A80036; stroke-width: 1.0;"/><polygon fill="#A80036" points="430.672,167.642,440.1457,170.3344,435.6221,166.9377,439.0188,162.4141,430.672,167.642" style="stroke: #A80036; stroke-width: 1.0;"/><!--
@startuml
:User: - -> (Watch videos) 
User - -> (Can make search,comment and likes) 
note right of User : Watch videos and ads
:Youtuber: - - -> (Upload videos)
Youtuber - - -> (Uses admin panel)
Youtuber - -> (Can make search,comment and likes)  
note right of Youtuber : Gets a part of the add revenue
:Adversitor: - - -> (Give ads)
Adversitor - - -> (Uses admin panel)
Adversitor - -> (Can make search,comment and likes) 
note right of Adversitor : Money goes to youtube and youtubers
@enduml

PlantUML version 1.2019.03(Sun Mar 10 11:04:44 UTC 2019)
(GPL source distribution)
Java Runtime: Java(TM) SE Runtime Environment
JVM: Java HotSpot(TM) 64-Bit Server VM
Java Version: 1.7.0_25-b15
Operating System: Linux
Default Encoding: UTF-8
Language: en
Country: US
--></g></svg>