<?xml version="1.0" encoding="UTF-8" standalone="no"?><svg xmlns="http://www.w3.org/2000/svg" xmlns:xlink="http://www.w3.org/1999/xlink" contentScriptType="application/ecmascript" contentStyleType="text/css" height="495px" preserveAspectRatio="none" style="width:1045px;height:495px;" version="1.1" viewBox="0 0 1045 495" width="1045px" zoomAndPan="magnify"><defs><filter height="300%" id="frukqjm8kir6j" width="300%" x="-1" y="-1"><feGaussianBlur result="blurOut" stdDeviation="2.0"/><feColorMatrix in="blurOut" result="blurOut2" type="matrix" values="0 0 0 0 0 0 0 0 0 0 0 0 0 0 0 0 0 0 .4 0"/><feOffset dx="4.0" dy="4.0" in="blurOut2" result="blurOut3"/><feBlend in="SourceGraphic" in2="blurOut3" mode="normal"/></filter></defs><g><!--entity User--><ellipse cx="393.5" cy="18" fill="#FEFECE" filter="url(#frukqjm8kir6j)" rx="8" ry="8" style="stroke: #A80036; stroke-width: 2.0;"/><path d="M393.5,26 L393.5,53 M380.5,34 L406.5,34 M393.5,53 L380.5,68 M393.5,53 L406.5,68 " fill="none" filter="url(#frukqjm8kir6j)" style="stroke: #A80036; stroke-width: 2.0;"/><text fill="#000000" font-family="sans-serif" font-size="14" lengthAdjust="spacingAndGlyphs" textLength="32" x="377.5" y="87.9951">User</text><ellipse cx="457.4486" cy="209.2897" fill="#FEFECE" filter="url(#frukqjm8kir6j)" rx="64.4486" ry="15.2897" style="stroke: #A80036; stroke-width: 1.5;"/><text fill="#000000" font-family="sans-serif" font-size="14" lengthAdjust="spacingAndGlyphs" textLength="92" x="411.4486" y="213.9382">Watch videos</text><ellipse cx="467.3513" cy="357.7703" fill="#FEFECE" filter="url(#frukqjm8kir6j)" rx="136.8513" ry="29.7703" style="stroke: #A80036; stroke-width: 1.5;"/><text fill="#000000" font-family="sans-serif" font-size="14" lengthAdjust="spacingAndGlyphs" textLength="255" x="339.8513" y="362.4187">Can make search,comment and likes</text><!--entity Youtuber--><ellipse cx="72.5" cy="178" fill="#FEFECE" filter="url(#frukqjm8kir6j)" rx="8" ry="8" style="stroke: #A80036; stroke-width: 2.0;"/><path d="M72.5,186 L72.5,213 M59.5,194 L85.5,194 M72.5,213 L59.5,228 M72.5,213 L85.5,228 " fill="none" filter="url(#frukqjm8kir6j)" style="stroke: #A80036; stroke-width: 2.0;"/><text fill="#000000" font-family="sans-serif" font-size="14" lengthAdjust="spacingAndGlyphs" textLength="64" x="40.5" y="247.9951">Youtuber</text><path d="M444.5,37 L444.5,45.5 L409.619,49.5 L444.5,53.5 L444.5,62.1328 A0,0 0 0 0 444.5,62.1328 L604.5,62.1328 A0,0 0 0 0 604.5,62.1328 L604.5,47 L594.5,37 L444.5,37 A0,0 0 0 0 444.5,37 " fill="#FBFB77" filter="url(#frukqjm8kir6j)" style="stroke: #A80036; stroke-width: 1.0;"/><path d="M594.5,37 L594.5,47 L604.5,47 L594.5,37 " fill="#FBFB77" style="stroke: #A80036; stroke-width: 1.0;"/><text fill="#000000" font-family="sans-serif" font-size="13" lengthAdjust="spacingAndGlyphs" textLength="139" x="450.5" y="54.0669">Watch videos and ads</text><ellipse cx="72.3417" cy="467.1683" fill="#FEFECE" filter="url(#frukqjm8kir6j)" rx="66.3417" ry="15.6683" style="stroke: #A80036; stroke-width: 1.5;"/><text fill="#000000" font-family="sans-serif" font-size="14" lengthAdjust="spacingAndGlyphs" textLength="97" x="23.8417" y="471.8168">Upload videos</text><ellipse cx="411.2711" cy="466.7542" fill="#FEFECE" filter="url(#frukqjm8kir6j)" rx="76.7711" ry="17.7542" style="stroke: #A80036; stroke-width: 1.5;"/><text fill="#000000" font-family="sans-serif" font-size="14" lengthAdjust="spacingAndGlyphs" textLength="123" x="349.7711" y="471.4027">Uses admin panel</text><path d="M139.5,197 L139.5,205.5 L104.8125,209.5 L139.5,213.5 L139.5,222.1328 A0,0 0 0 0 139.5,222.1328 L357.5,222.1328 A0,0 0 0 0 357.5,222.1328 L357.5,207 L347.5,197 L139.5,197 A0,0 0 0 0 139.5,197 " fill="#FBFB77" filter="url(#frukqjm8kir6j)" style="stroke: #A80036; stroke-width: 1.0;"/><path d="M347.5,197 L347.5,207 L357.5,207 L347.5,197 " fill="#FBFB77" style="stroke: #A80036; stroke-width: 1.0;"/><text fill="#000000" font-family="sans-serif" font-size="13" lengthAdjust="spacingAndGlyphs" textLength="197" x="145.5" y="214.0669">Gets a part of the add revenue</text><!--entity Adversitor--><ellipse cx="696.5" cy="178" fill="#FEFECE" filter="url(#frukqjm8kir6j)" rx="8" ry="8" style="stroke: #A80036; stroke-width: 2.0;"/><path d="M696.5,186 L696.5,213 M683.5,194 L709.5,194 M696.5,213 L683.5,228 M696.5,213 L709.5,228 " fill="none" filter="url(#frukqjm8kir6j)" style="stroke: #A80036; stroke-width: 2.0;"/><text fill="#000000" font-family="sans-serif" font-size="14" lengthAdjust="spacingAndGlyphs" textLength="69" x="662" y="247.9951">Adversitor</text><ellipse cx="728.7193" cy="467.0236" fill="#FEFECE" filter="url(#frukqjm8kir6j)" rx="44.7193" ry="14.5236" style="stroke: #A80036; stroke-width: 1.5;"/><text fill="#000000" font-family="sans-serif" font-size="14" lengthAdjust="spacingAndGlyphs" textLength="59" x="699.2193" y="471.6721">Give ads</text><ellipse cx="891.5935" cy="357.8187" fill="#FEFECE" filter="url(#frukqjm8kir6j)" rx="109.5935" ry="24.3187" style="stroke: #A80036; stroke-width: 1.5;"/><text fill="#000000" font-family="sans-serif" font-size="14" lengthAdjust="spacingAndGlyphs" textLength="197" x="793.0935" y="362.4671">Demand safer videos for ads</text><path d="M766,197 L766,205.5 L731.391,209.5 L766,213.5 L766,222.1328 A0,0 0 0 0 766,222.1328 L1033,222.1328 A0,0 0 0 0 1033,222.1328 L1033,207 L1023,197 L766,197 A0,0 0 0 0 766,197 " fill="#FBFB77" filter="url(#frukqjm8kir6j)" style="stroke: #A80036; stroke-width: 1.0;"/><path d="M1023,197 L1023,207 L1033,207 L1023,197 " fill="#FBFB77" style="stroke: #A80036; stroke-width: 1.0;"/><text fill="#000000" font-family="sans-serif" font-size="13" lengthAdjust="spacingAndGlyphs" textLength="246" x="772" y="214.0669">Money goes to youtube and youtubers</text><!--link User to Watch videos--><path d="M409.602,87.728 C414.164,98.439 419.088,110.158 423.5,121 C432.989,144.319 443.407,171.356 450.177,189.133 " fill="none" id="User-Watch videos" style="stroke: #A80036; stroke-width: 1.0;"/><polygon fill="#A80036" points="451.986,193.891,452.5255,184.0569,450.2086,189.2176,445.048,186.9007,451.986,193.891" style="stroke: #A80036; stroke-width: 1.0;"/><!--link User to Can make search,comment and likes--><path d="M409.546,72.54 C414.622,78.836 420.486,85.48 426.5,91 C471.272,132.096 511.096,114.273 539.5,168 C567.21,220.413 527.045,285.906 496.487,324.424 " fill="none" id="User-Can make search,comment and likes" style="stroke: #A80036; stroke-width: 1.0;"/><polygon fill="#A80036" points="493.189,328.525,501.9462,324.0182,496.3224,324.6286,495.712,319.0048,493.189,328.525" style="stroke: #A80036; stroke-width: 1.0;"/><!--link User to Youtuber--><path d="M377.459,50.627 C332.777,51.764 204.911,60.446 124.5,121 C110.172,131.79 99.0314,147.778 90.8029,163.147 " fill="none" id="User-Youtuber" style="stroke: #A80036; stroke-width: 1.0;"/><polygon fill="#A80036" points="88.3424,167.891,96.0363,161.7425,90.644,163.4522,88.9343,158.0599,88.3424,167.891" style="stroke: #A80036; stroke-width: 1.0;"/><text fill="#000000" font-family="sans-serif" font-size="13" lengthAdjust="spacingAndGlyphs" textLength="142" x="125.5" y="134.0669">Can become youtuber</text><!--link Youtuber to User--><path d="M104.7173,178.223 C110.04,174.327 115.718,170.746 121.5,168 C183.306,138.645 209.778,165.343 272.5,138 C311.813,120.862 350.845,89.334 373.543,69.171 " fill="none" id="Youtuber-User" style="stroke: #A80036; stroke-width: 1.0;"/><polygon fill="#A80036" points="377.315,65.791,367.9434,68.8198,373.5919,69.1284,373.2833,74.7768,377.315,65.791" style="stroke: #A80036; stroke-width: 1.0;"/><text fill="#000000" font-family="sans-serif" font-size="13" lengthAdjust="spacingAndGlyphs" textLength="102" x="302.5" y="134.0669">Can get banned</text><!--link Youtuber to Upload videos--><path d="M72.5,251.267 C72.5,306.932 72.5,404.5579 72.5,446.2354 " fill="none" id="Youtuber-Upload videos" style="stroke: #A80036; stroke-width: 1.0;"/><polygon fill="#A80036" points="72.5,451.2684,76.5,442.2684,72.5,446.2684,68.5,442.2684,72.5,451.2684" style="stroke: #A80036; stroke-width: 1.0;"/><!--link Youtuber to Uses admin panel--><path d="M104.7235,237.539 C110.278,242.084 116.026,246.713 121.5,251 C216.532,325.417 332.703,409.5448 384.426,446.6571 " fill="none" id="Youtuber-Uses admin panel" style="stroke: #A80036; stroke-width: 1.0;"/><polygon fill="#A80036" points="388.633,449.6743,383.6508,441.1785,384.57,446.7602,378.9883,447.6793,388.633,449.6743" style="stroke: #A80036; stroke-width: 1.0;"/><!--link Youtuber to Can make search,comment and likes--><path d="M104.5934,240.269 C109.976,244.284 115.703,248.034 121.5,251 C168.523,275.061 185.832,266.072 236.5,281 C288.566,296.34 346.598,315.44 391.471,330.655 " fill="none" id="Youtuber-Can make search,comment and likes" style="stroke: #A80036; stroke-width: 1.0;"/><polygon fill="#A80036" points="396.323,332.303,389.0883,325.6203,391.5888,330.6945,386.5146,333.195,396.323,332.303" style="stroke: #A80036; stroke-width: 1.0;"/><!--link Adversitor to Give ads--><path d="M701.606,251.267 C708.631,307.358 720.992,406.0545 726.143,447.1824 " fill="none" id="Adversitor-Give ads" style="stroke: #A80036; stroke-width: 1.0;"/><polygon fill="#A80036" points="726.792,452.3648,729.6425,442.9375,726.1706,447.4036,721.7045,443.9317,726.792,452.3648" style="stroke: #A80036; stroke-width: 1.0;"/><!--link Adversitor to Uses admin panel--><path d="M689.344,251.056 C680.309,290.92 661.037,351.008 622.5,388 C583.49,425.4457 524.958,445.2028 479.43,455.4515 " fill="none" id="Adversitor-Uses admin panel" style="stroke: #A80036; stroke-width: 1.0;"/><polygon fill="#A80036" points="474.507,456.5343,484.1562,458.5072,479.3902,455.46,482.4374,450.694,474.507,456.5343" style="stroke: #A80036; stroke-width: 1.0;"/><!--link Adversitor to Can make search,comment and likes--><path d="M661.589,244.66 C642.721,261.998 618.434,282.593 594.5,298 C576.503,309.586 555.864,320.18 536.529,329.096 " fill="none" id="Adversitor-Can make search,comment and likes" style="stroke: #A80036; stroke-width: 1.0;"/><polygon fill="#A80036" points="531.644,331.326,541.4924,331.2286,536.1927,329.2502,538.1711,323.9506,531.644,331.326" style="stroke: #A80036; stroke-width: 1.0;"/><!--link Adversitor to Demand safer videos for ads--><path d="M731.095,237.629 C736.889,242.119 742.851,246.708 748.5,251 C785.085,278.8 827.412,310.065 856.469,331.392 " fill="none" id="Adversitor-Demand safer videos for ads" style="stroke: #A80036; stroke-width: 1.0;"/><polygon fill="#A80036" points="860.658,334.465,855.7669,325.9165,856.6263,331.5077,851.0352,332.3672,860.658,334.465" style="stroke: #A80036; stroke-width: 1.0;"/><text fill="#000000" font-family="sans-serif" font-size="13" lengthAdjust="spacingAndGlyphs" textLength="43" x="811.5" y="294.0669">Or quit</text><!--
@startuml
:User: - -> (Watch videos) 
User - -> (Can make search,comment and likes) 
User - -> Youtuber : (Can become youtuber)
note right of User : Watch videos and ads
:Youtuber: - - -> (Upload videos)
Youtuber - - -> (Uses admin panel)
Youtuber - -> (Can make search,comment and likes)  
Youtuber - -> User : (Can get banned)  
note right of Youtuber : Gets a part of the add revenue
:Adversitor: - - -> (Give ads)
Adversitor - - -> (Uses admin panel)
Adversitor - -> (Can make search,comment and likes) 
Adversitor - -> (Demand safer videos for ads) : Or quit
note right of Adversitor : Money goes to youtube and youtubers
@enduml

PlantUML version 1.2019.03(Sun Mar 10 11:04:44 UTC 2019)
(GPL source distribution)
Java Runtime: Java(TM) SE Runtime Environment
JVM: Java HotSpot(TM) 64-Bit Server VM
Java Version: 1.7.0_25-b15
Operating System: Linux
Default Encoding: UTF-8
Language: en
Country: US
--></g></svg>