<?xml version="1.0" encoding="UTF-8" standalone="no"?><svg xmlns="http://www.w3.org/2000/svg" xmlns:xlink="http://www.w3.org/1999/xlink" contentScriptType="application/ecmascript" contentStyleType="text/css" height="417px" preserveAspectRatio="none" style="width:678px;height:417px;" version="1.1" viewBox="0 0 678 417" width="678px" zoomAndPan="magnify"><defs><filter height="300%" id="fohawcabo0h6g" width="300%" x="-1" y="-1"><feGaussianBlur result="blurOut" stdDeviation="2.0"/><feColorMatrix in="blurOut" result="blurOut2" type="matrix" values="0 0 0 0 0 0 0 0 0 0 0 0 0 0 0 0 0 0 .4 0"/><feOffset dx="4.0" dy="4.0" in="blurOut2" result="blurOut3"/><feBlend in="SourceGraphic" in2="blurOut3" mode="normal"/></filter></defs><g><!--entity User--><ellipse cx="307.5" cy="18" fill="#FEFECE" filter="url(#fohawcabo0h6g)" rx="8" ry="8" style="stroke: #A80036; stroke-width: 2.0;"/><path d="M307.5,26 L307.5,53 M294.5,34 L320.5,34 M307.5,53 L294.5,68 M307.5,53 L320.5,68 " fill="none" filter="url(#fohawcabo0h6g)" style="stroke: #A80036; stroke-width: 2.0;"/><text fill="#000000" font-family="sans-serif" font-size="14" lengthAdjust="spacingAndGlyphs" textLength="32" x="291.5" y="87.9951">User</text><ellipse cx="70.4486" cy="209.2897" fill="#FEFECE" filter="url(#fohawcabo0h6g)" rx="64.4486" ry="15.2897" style="stroke: #A80036; stroke-width: 1.5;"/><text fill="#000000" font-family="sans-serif" font-size="14" lengthAdjust="spacingAndGlyphs" textLength="92" x="24.4486" y="213.9382">Watch videos</text><ellipse cx="307.3513" cy="209.2703" fill="#FEFECE" filter="url(#fohawcabo0h6g)" rx="136.8513" ry="29.7703" style="stroke: #A80036; stroke-width: 1.5;"/><text fill="#000000" font-family="sans-serif" font-size="14" lengthAdjust="spacingAndGlyphs" textLength="255" x="179.8513" y="213.9187">Can make search,comment and likes</text><!--entity Youtuber--><ellipse cx="511.5" cy="178" fill="#FEFECE" filter="url(#fohawcabo0h6g)" rx="8" ry="8" style="stroke: #A80036; stroke-width: 2.0;"/><path d="M511.5,186 L511.5,213 M498.5,194 L524.5,194 M511.5,213 L498.5,228 M511.5,213 L524.5,228 " fill="none" filter="url(#fohawcabo0h6g)" style="stroke: #A80036; stroke-width: 2.0;"/><text fill="#000000" font-family="sans-serif" font-size="14" lengthAdjust="spacingAndGlyphs" textLength="64" x="479.5" y="247.9951">Youtuber</text><path d="M358.5,37 L358.5,45.5 L323.619,49.5 L358.5,53.5 L358.5,62.1328 A0,0 0 0 0 358.5,62.1328 L518.5,62.1328 A0,0 0 0 0 518.5,62.1328 L518.5,47 L508.5,37 L358.5,37 A0,0 0 0 0 358.5,37 " fill="#FBFB77" filter="url(#fohawcabo0h6g)" style="stroke: #A80036; stroke-width: 1.0;"/><path d="M508.5,37 L508.5,47 L518.5,47 L508.5,37 " fill="#FBFB77" style="stroke: #A80036; stroke-width: 1.0;"/><text fill="#000000" font-family="sans-serif" font-size="13" lengthAdjust="spacingAndGlyphs" textLength="139" x="364.5" y="54.0669">Watch videos and ads</text><ellipse cx="425.3417" cy="390.6683" fill="#FEFECE" filter="url(#fohawcabo0h6g)" rx="66.3417" ry="15.6683" style="stroke: #A80036; stroke-width: 1.5;"/><text fill="#000000" font-family="sans-serif" font-size="14" lengthAdjust="spacingAndGlyphs" textLength="97" x="376.8417" y="395.3168">Upload videos</text><ellipse cx="597.7471" cy="390.4494" fill="#FEFECE" filter="url(#fohawcabo0h6g)" rx="70.2471" ry="16.4494" style="stroke: #A80036; stroke-width: 1.5;"/><text fill="#000000" font-family="sans-serif" font-size="14" lengthAdjust="spacingAndGlyphs" textLength="107" x="544.2471" y="395.0979">Get ad revenue</text><!--link User to Watch videos--><path d="M291.21,61.36 C250.502,88.499 144.123,159.418 95.455,191.863 " fill="none" id="User-Watch videos" style="stroke: #A80036; stroke-width: 1.0;"/><polygon fill="#A80036" points="91.2096,194.694,100.9168,193.0295,95.3697,191.9203,96.4789,186.3733,91.2096,194.694" style="stroke: #A80036; stroke-width: 1.0;"/><!--link User to Can make search,comment and likes--><path d="M307.5,91.189 C307.5,116.968 307.5,149.929 307.5,174.345 " fill="none" id="User-Can make search,comment and likes" style="stroke: #A80036; stroke-width: 1.0;"/><polygon fill="#A80036" points="307.5,179.42,311.5,170.42,307.5,174.42,303.5,170.42,307.5,179.42" style="stroke: #A80036; stroke-width: 1.0;"/><!--link User to Youtuber--><path d="M323.662,72.214 C328.97,78.637 335.148,85.433 341.5,91 C389.44,133.011 410.946,130.512 462.5,168 C466.651,171.018 470.91,174.276 475.102,177.587 " fill="none" id="User-Youtuber" style="stroke: #A80036; stroke-width: 1.0;"/><polygon fill="#A80036" points="479.265,180.909,474.7246,172.1691,475.3566,177.7906,469.7352,178.4225,479.265,180.909" style="stroke: #A80036; stroke-width: 1.0;"/><text fill="#000000" font-family="sans-serif" font-size="13" lengthAdjust="spacingAndGlyphs" textLength="142" x="414.5" y="134.0669">Can become youtuber</text><!--link Youtuber to Upload videos--><path d="M491.985,251.118 C474.089,288.366 448.365,341.9089 434.757,370.2328 " fill="none" id="Youtuber-Upload videos" style="stroke: #A80036; stroke-width: 1.0;"/><polygon fill="#A80036" points="432.521,374.8873,440.0246,368.508,434.6867,370.3807,432.814,365.0428,432.521,374.8873" style="stroke: #A80036; stroke-width: 1.0;"/><!--link Youtuber to Get ad revenue--><path d="M531.015,251.118 C548.723,287.976 574.097,340.7894 587.812,369.3348 " fill="none" id="Youtuber-Get ad revenue" style="stroke: #A80036; stroke-width: 1.0;"/><polygon fill="#A80036" points="590.071,374.0375,589.7792,364.193,587.9058,369.5306,582.5682,367.6572,590.071,374.0375" style="stroke: #A80036; stroke-width: 1.0;"/><!--
@startuml
:User: - -> (Watch videos) 
User - -> (Can make search,comment and likes) 
User - -> Youtuber : (Can become youtuber)
note right of User : Watch videos and ads
:Youtuber: - - -> (Upload videos)
Youtuber - - -> (Get ad revenue)
@enduml

PlantUML version 1.2019.03(Sun Mar 10 11:04:44 UTC 2019)
(GPL source distribution)
Java Runtime: Java(TM) SE Runtime Environment
JVM: Java HotSpot(TM) 64-Bit Server VM
Java Version: 1.7.0_25-b15
Operating System: Linux
Default Encoding: UTF-8
Language: en
Country: US
--></g></svg>