<?xml version="1.0" encoding="UTF-8" standalone="no"?><svg xmlns="http://www.w3.org/2000/svg" xmlns:xlink="http://www.w3.org/1999/xlink" contentScriptType="application/ecmascript" contentStyleType="text/css" height="358px" preserveAspectRatio="none" style="width:822px;height:358px;" version="1.1" viewBox="0 0 822 358" width="822px" zoomAndPan="magnify"><defs><filter height="300%" id="fy00zhi243nqx" width="300%" x="-1" y="-1"><feGaussianBlur result="blurOut" stdDeviation="2.0"/><feColorMatrix in="blurOut" result="blurOut2" type="matrix" values="0 0 0 0 0 0 0 0 0 0 0 0 0 0 0 0 0 0 .4 0"/><feOffset dx="4.0" dy="4.0" in="blurOut2" result="blurOut3"/><feBlend in="SourceGraphic" in2="blurOut3" mode="normal"/></filter></defs><g><!--entity User--><ellipse cx="80.5" cy="178" fill="#FEFECE" filter="url(#fy00zhi243nqx)" rx="8" ry="8" style="stroke: #A80036; stroke-width: 2.0;"/><path d="M80.5,186 L80.5,213 M67.5,194 L93.5,194 M80.5,213 L67.5,228 M80.5,213 L93.5,228 " fill="none" filter="url(#fy00zhi243nqx)" style="stroke: #A80036; stroke-width: 2.0;"/><text fill="#000000" font-family="sans-serif" font-size="14" lengthAdjust="spacingAndGlyphs" textLength="32" x="64.5" y="247.9951">User</text><ellipse cx="70.4486" cy="329.7897" fill="#FEFECE" filter="url(#fy00zhi243nqx)" rx="64.4486" ry="15.2897" style="stroke: #A80036; stroke-width: 1.5;"/><text fill="#000000" font-family="sans-serif" font-size="14" lengthAdjust="spacingAndGlyphs" textLength="92" x="24.4486" y="334.4382">Watch videos</text><!--entity Youtuber--><ellipse cx="361.5" cy="18" fill="#FEFECE" filter="url(#fy00zhi243nqx)" rx="8" ry="8" style="stroke: #A80036; stroke-width: 2.0;"/><path d="M361.5,26 L361.5,53 M348.5,34 L374.5,34 M361.5,53 L348.5,68 M361.5,53 L374.5,68 " fill="none" filter="url(#fy00zhi243nqx)" style="stroke: #A80036; stroke-width: 2.0;"/><text fill="#000000" font-family="sans-serif" font-size="14" lengthAdjust="spacingAndGlyphs" textLength="64" x="329.5" y="87.9951">Youtuber</text><ellipse cx="236.3417" cy="330.1683" fill="#FEFECE" filter="url(#fy00zhi243nqx)" rx="66.3417" ry="15.6683" style="stroke: #A80036; stroke-width: 1.5;"/><text fill="#000000" font-family="sans-serif" font-size="14" lengthAdjust="spacingAndGlyphs" textLength="97" x="187.8417" y="334.8168">Upload videos</text><ellipse cx="415.2711" cy="329.7542" fill="#FEFECE" filter="url(#fy00zhi243nqx)" rx="76.7711" ry="17.7542" style="stroke: #A80036; stroke-width: 1.5;"/><text fill="#000000" font-family="sans-serif" font-size="14" lengthAdjust="spacingAndGlyphs" textLength="123" x="353.7711" y="334.4027">Uses admin panel</text><ellipse cx="551.3513" cy="209.2703" fill="#FEFECE" filter="url(#fy00zhi243nqx)" rx="136.8513" ry="29.7703" style="stroke: #A80036; stroke-width: 1.5;"/><text fill="#000000" font-family="sans-serif" font-size="14" lengthAdjust="spacingAndGlyphs" textLength="255" x="423.8513" y="213.9187">Can make search,comment and likes</text><ellipse cx="741.7471" cy="329.9494" fill="#FEFECE" filter="url(#fy00zhi243nqx)" rx="70.2471" ry="16.4494" style="stroke: #A80036; stroke-width: 1.5;"/><text fill="#000000" font-family="sans-serif" font-size="14" lengthAdjust="spacingAndGlyphs" textLength="107" x="688.2471" y="334.5979">Get ad revenue</text><path d="M428.5,37 L428.5,45.5 L393.812,49.5 L428.5,53.5 L428.5,62.1328 A0,0 0 0 0 428.5,62.1328 L646.5,62.1328 A0,0 0 0 0 646.5,62.1328 L646.5,47 L636.5,37 L428.5,37 A0,0 0 0 0 428.5,37 " fill="#FBFB77" filter="url(#fy00zhi243nqx)" style="stroke: #A80036; stroke-width: 1.0;"/><path d="M636.5,37 L636.5,47 L646.5,47 L636.5,37 " fill="#FBFB77" style="stroke: #A80036; stroke-width: 1.0;"/><text fill="#000000" font-family="sans-serif" font-size="13" lengthAdjust="spacingAndGlyphs" textLength="197" x="434.5" y="54.0669">Gets a part of the add revenue</text><!--link User to Watch videos--><path d="M77.0586,251.281 C75.4038,270.8897 73.496,293.497 72.1662,309.2554 " fill="none" id="User-Watch videos" style="stroke: #A80036; stroke-width: 1.0;"/><polygon fill="#A80036" points="71.7386,314.3228,76.4815,305.6912,72.1592,309.3405,68.5098,305.0182,71.7386,314.3228" style="stroke: #A80036; stroke-width: 1.0;"/><!--link Youtuber to Upload videos--><path d="M343.19,91.295 C315.841,152.228 265.379,264.6575 245.186,309.6478 " fill="none" id="Youtuber-Upload videos" style="stroke: #A80036; stroke-width: 1.0;"/><polygon fill="#A80036" points="243.102,314.2914,250.4369,307.7188,245.1496,309.7299,243.1385,304.4426,243.102,314.2914" style="stroke: #A80036; stroke-width: 1.0;"/><!--link Youtuber to Uses admin panel--><path d="M367.82,91.355 C374.295,131.978 385.015,196.003 396.5,251 C400.442,269.8768 405.673,291.1331 409.648,306.6829 " fill="none" id="Youtuber-Uses admin panel" style="stroke: #A80036; stroke-width: 1.0;"/><polygon fill="#A80036" points="410.944,311.7259,412.5774,302.0134,409.6992,306.8833,404.8293,304.0051,410.944,311.7259" style="stroke: #A80036; stroke-width: 1.0;"/><!--link Youtuber to Can make search,comment and likes--><path d="M393.731,77.303 C426.796,104.799 478.224,147.565 513.311,176.742 " fill="none" id="Youtuber-Can make search,comment and likes" style="stroke: #A80036; stroke-width: 1.0;"/><polygon fill="#A80036" points="517.506,180.231,513.144,171.4008,513.6617,177.0339,508.0286,177.5516,517.506,180.231" style="stroke: #A80036; stroke-width: 1.0;"/><!--link Youtuber to Get ad revenue--><path d="M393.594,80.268 C398.976,84.283 404.703,88.033 410.5,91 C531.125,152.732 611.392,70.506 705.5,168 C742.508,206.339 744.739,273.9864 743.195,308.0934 " fill="none" id="Youtuber-Get ad revenue" style="stroke: #A80036; stroke-width: 1.0;"/><polygon fill="#A80036" points="742.919,313.2698,747.3919,304.4952,743.1849,308.2769,739.4032,304.0698,742.919,313.2698" style="stroke: #A80036; stroke-width: 1.0;"/><!--link Youtuber to User--><path d="M329.274,49.994 C275.615,50.957 167.812,60.848 106.5,121 C95.2186,132.068 88.7811,147.791 85.1255,162.863 " fill="none" id="Youtuber-User" style="stroke: #A80036; stroke-width: 1.0;"/><polygon fill="#A80036" points="83.9895,167.942,89.8598,160.0338,85.0823,163.0629,82.0532,158.2854,83.9895,167.942" style="stroke: #A80036; stroke-width: 1.0;"/><text fill="#000000" font-family="sans-serif" font-size="13" lengthAdjust="spacingAndGlyphs" textLength="102" x="107.5" y="134.0669">Can get banned</text><!--
@startuml
:User: - -> (Watch videos) 
:Youtuber: - - -> (Upload videos)
Youtuber - - -> (Uses admin panel)
Youtuber - -> (Can make search,comment and likes)  
Youtuber - - -> (Get ad revenue)
Youtuber - -> User : (Can get banned)  
note right of Youtuber : Gets a part of the add revenue
@enduml

PlantUML version 1.2019.03(Sun Mar 10 11:04:44 UTC 2019)
(GPL source distribution)
Java Runtime: Java(TM) SE Runtime Environment
JVM: Java HotSpot(TM) 64-Bit Server VM
Java Version: 1.7.0_25-b15
Operating System: Linux
Default Encoding: UTF-8
Language: en
Country: US
--></g></svg>