<?xml version="1.0" encoding="UTF-8" standalone="no"?><svg xmlns="http://www.w3.org/2000/svg" xmlns:xlink="http://www.w3.org/1999/xlink" contentScriptType="application/ecmascript" contentStyleType="text/css" height="335px" preserveAspectRatio="none" style="width:800px;height:335px;" version="1.1" viewBox="0 0 800 335" width="800px" zoomAndPan="magnify"><defs><filter height="300%" id="f97bm9thh222v" width="300%" x="-1" y="-1"><feGaussianBlur result="blurOut" stdDeviation="2.0"/><feColorMatrix in="blurOut" result="blurOut2" type="matrix" values="0 0 0 0 0 0 0 0 0 0 0 0 0 0 0 0 0 0 .4 0"/><feOffset dx="4.0" dy="4.0" in="blurOut2" result="blurOut3"/><feBlend in="SourceGraphic" in2="blurOut3" mode="normal"/></filter></defs><g><!--entity Adversitor--><ellipse cx="302.5" cy="18" fill="#FEFECE" filter="url(#f97bm9thh222v)" rx="8" ry="8" style="stroke: #A80036; stroke-width: 2.0;"/><path d="M302.5,26 L302.5,53 M289.5,34 L315.5,34 M302.5,53 L289.5,68 M302.5,53 L315.5,68 " fill="none" filter="url(#f97bm9thh222v)" style="stroke: #A80036; stroke-width: 2.0;"/><text fill="#000000" font-family="sans-serif" font-size="14" lengthAdjust="spacingAndGlyphs" textLength="69" x="268" y="87.9951">Adversitor</text><ellipse cx="50.7193" cy="307.0236" fill="#FEFECE" filter="url(#f97bm9thh222v)" rx="44.7193" ry="14.5236" style="stroke: #A80036; stroke-width: 1.5;"/><text fill="#000000" font-family="sans-serif" font-size="14" lengthAdjust="spacingAndGlyphs" textLength="59" x="21.2193" y="311.6721">Give ads</text><ellipse cx="207.2711" cy="306.7542" fill="#FEFECE" filter="url(#f97bm9thh222v)" rx="76.7711" ry="17.7542" style="stroke: #A80036; stroke-width: 1.5;"/><text fill="#000000" font-family="sans-serif" font-size="14" lengthAdjust="spacingAndGlyphs" textLength="123" x="145.7711" y="311.4027">Uses admin panel</text><ellipse cx="397.3513" cy="197.7703" fill="#FEFECE" filter="url(#f97bm9thh222v)" rx="136.8513" ry="29.7703" style="stroke: #A80036; stroke-width: 1.5;"/><text fill="#000000" font-family="sans-serif" font-size="14" lengthAdjust="spacingAndGlyphs" textLength="255" x="269.8513" y="202.4187">Can make search,comment and likes</text><ellipse cx="679.5935" cy="197.8187" fill="#FEFECE" filter="url(#f97bm9thh222v)" rx="109.5935" ry="24.3187" style="stroke: #A80036; stroke-width: 1.5;"/><text fill="#000000" font-family="sans-serif" font-size="14" lengthAdjust="spacingAndGlyphs" textLength="197" x="581.0935" y="202.4671">Demand safer videos for ads</text><path d="M372,37 L372,45.5 L337.391,49.5 L372,53.5 L372,62.1328 A0,0 0 0 0 372,62.1328 L639,62.1328 A0,0 0 0 0 639,62.1328 L639,47 L629,37 L372,37 A0,0 0 0 0 372,37 " fill="#FBFB77" filter="url(#f97bm9thh222v)" style="stroke: #A80036; stroke-width: 1.0;"/><path d="M629,37 L629,47 L639,47 L629,37 " fill="#FBFB77" style="stroke: #A80036; stroke-width: 1.0;"/><text fill="#000000" font-family="sans-serif" font-size="13" lengthAdjust="spacingAndGlyphs" textLength="246" x="378" y="54.0669">Money goes to youtube and youtubers</text><!--link Adversitor to Give ads--><path d="M267.989,85.49 C213.012,141.23 107.619,248.0873 67.0142,289.2564 " fill="none" id="Adversitor-Give ads" style="stroke: #A80036; stroke-width: 1.0;"/><polygon fill="#A80036" points="63.2908,293.0316,72.4586,289.4328,66.8019,289.4718,66.7629,283.8151,63.2908,293.0316" style="stroke: #A80036; stroke-width: 1.0;"/><!--link Adversitor to Uses admin panel--><path d="M278.933,91.073 C266.786,113.252 252.472,141.528 242.5,168 C227.572,207.63 216.948,256.0284 211.554,283.706 " fill="none" id="Adversitor-Uses admin panel" style="stroke: #A80036; stroke-width: 1.0;"/><polygon fill="#A80036" points="210.608,288.6262,216.2357,280.5436,211.5523,283.7162,208.3797,279.0327,210.608,288.6262" style="stroke: #A80036; stroke-width: 1.0;"/><!--link Adversitor to Can make search,comment and likes--><path d="M328.963,91.308 C343.786,114.168 362.035,142.31 375.975,163.806 " fill="none" id="Adversitor-Can make search,comment and likes" style="stroke: #A80036; stroke-width: 1.0;"/><polygon fill="#A80036" points="378.703,168.013,377.1613,158.2856,375.9821,163.8181,370.4495,162.639,378.703,168.013" style="stroke: #A80036; stroke-width: 1.0;"/><!--link Adversitor to Demand safer videos for ads--><path d="M337.184,80.116 C342.765,84.103 348.639,87.885 354.5,91 C432.903,132.667 530.66,161.835 598.376,178.882 " fill="none" id="Adversitor-Demand safer videos for ads" style="stroke: #A80036; stroke-width: 1.0;"/><polygon fill="#A80036" points="603.606,180.19,595.8449,174.1266,598.7553,178.9773,593.9046,181.8877,603.606,180.19" style="stroke: #A80036; stroke-width: 1.0;"/><text fill="#000000" font-family="sans-serif" font-size="13" lengthAdjust="spacingAndGlyphs" textLength="43" x="458.5" y="134.0669">Or quit</text><!--
@startuml
:Adversitor: - - -> (Give ads)
Adversitor - - -> (Uses admin panel)
Adversitor - -> (Can make search,comment and likes) 
Adversitor - -> (Demand safer videos for ads) : Or quit
note right of Adversitor : Money goes to youtube and youtubers
@enduml

PlantUML version 1.2019.03(Sun Mar 10 11:04:44 UTC 2019)
(GPL source distribution)
Java Runtime: Java(TM) SE Runtime Environment
JVM: Java HotSpot(TM) 64-Bit Server VM
Java Version: 1.7.0_25-b15
Operating System: Linux
Default Encoding: UTF-8
Language: en
Country: US
--></g></svg>